<svg width="47" height="30" viewBox="0 0 47 30" fill="none" xmlns="http://www.w3.org/2000/svg">
<rect x="0.5" y="0.5" width="46" height="29" rx="7.5" fill="white"/>
<rect x="0.5" y="0.5" width="46" height="29" rx="7.5" stroke="#F0F1F3"/>
<path d="M18.6654 12.3334H13.332V17.6667H18.6654V12.3334Z" stroke="#667085" stroke-width="1.5" stroke-linecap="round" stroke-linejoin="round"/>
<path d="M11.332 21.6666C12.432 21.6666 13.332 20.7666 13.332 19.6666V17.6666H11.332C10.232 17.6666 9.33203 18.5666 9.33203 19.6666C9.33203 20.7666 10.232 21.6666 11.332 21.6666Z" stroke="#667085" stroke-width="1.5" stroke-linecap="round" stroke-linejoin="round"/>
<path d="M11.332 12.3334H13.332V10.3334C13.332 9.23337 12.432 8.33337 11.332 8.33337C10.232 8.33337 9.33203 9.23337 9.33203 10.3334C9.33203 11.4334 10.232 12.3334 11.332 12.3334Z" stroke="#667085" stroke-width="1.5" stroke-linecap="round" stroke-linejoin="round"/>
<path d="M18.668 12.3334H20.668C21.768 12.3334 22.668 11.4334 22.668 10.3334C22.668 9.23337 21.768 8.33337 20.668 8.33337C19.568 8.33337 18.668 9.23337 18.668 10.3334V12.3334Z" stroke="#667085" stroke-width="1.5" stroke-linecap="round" stroke-linejoin="round"/>
<path d="M20.668 21.6666C21.768 21.6666 22.668 20.7666 22.668 19.6666C22.668 18.5666 21.768 17.6666 20.668 17.6666H18.668V19.6666C18.668 20.7666 19.568 21.6666 20.668 21.6666Z" stroke="#667085" stroke-width="1.5" stroke-linecap="round" stroke-linejoin="round"/>
<path d="M32.52 14.946H37.7V15.842H32.52V14.946ZM32.632 20H31.596V10.2H38.316V11.096H32.632V20Z" fill="#667085"/>
</svg>
