<svg width="24" height="24" viewBox="0 0 24 24" fill="none" xmlns="http://www.w3.org/2000/svg">
<path d="M5.45809 18.49V15.57C5.45809 14.6 6.21809 13.73 7.29809 13.73C8.26809 13.73 9.13809 14.49 9.13809 15.57V18.38C9.13809 20.33 7.51809 21.95 5.56809 21.95C3.61809 21.95 1.99809 20.32 1.99809 18.38V12.22C1.88809 6.59999 6.32809 2.04999 11.9481 2.04999C17.5681 2.04999 21.9981 6.59999 21.9981 12.11V18.27C21.9981 20.22 20.3781 21.84 18.4281 21.84C16.4781 21.84 14.8581 20.22 14.8581 18.27V15.46C14.8581 14.49 15.6181 13.62 16.6981 13.62C17.6681 13.62 18.5381 14.38 18.5381 15.46V18.49" stroke="#667085" stroke-width="1.5" stroke-linecap="round" stroke-linejoin="round"/>
</svg>
