<svg width="255" height="160" viewBox="0 0 255 160" fill="none" xmlns="http://www.w3.org/2000/svg">
<g clip-path="url(#clip0_2822_683)">
<rect width="255" height="160" rx="10" fill="url(#paint0_linear_2822_683)"/>
<path d="M56.9116 91.2349L50.1959 70.7069H55.1227L60.9585 88.8889H58.4951L64.5949 70.7069H68.9938L74.8589 88.8889H72.4836L78.466 70.7069H83.0115L76.2959 91.2349H71.1932L66.0026 75.2817H67.3515L62.0142 91.2349H56.9116ZM89.6508 91.4695C87.8522 91.4695 86.2686 91.1176 84.9001 90.4138C83.5511 89.71 82.5051 88.752 81.7622 87.5399C81.0193 86.3082 80.6478 84.9103 80.6478 83.3463C80.6478 81.7627 81.0095 80.3648 81.7329 79.1527C82.4758 77.921 83.4826 76.963 84.7534 76.2788C86.0242 75.5749 87.4612 75.223 89.0643 75.223C90.6088 75.223 91.9969 75.5554 93.2286 76.2201C94.4798 76.8653 95.4671 77.8037 96.1905 79.0354C96.9139 80.2475 97.2755 81.704 97.2755 83.4049C97.2755 83.5809 97.2658 83.7862 97.2462 84.0208C97.2267 84.2358 97.2071 84.4411 97.1876 84.6366H84.3722V81.968H94.7828L93.0233 82.7598C93.0233 81.9386 92.8571 81.2251 92.5248 80.619C92.1924 80.0129 91.733 79.5437 91.1464 79.2113C90.5599 78.8594 89.8757 78.6835 89.0936 78.6835C88.3116 78.6835 87.6176 78.8594 87.0115 79.2113C86.425 79.5437 85.9656 80.0227 85.6332 80.6483C85.3008 81.2544 85.1347 81.9777 85.1347 82.8184V83.5222C85.1347 84.3825 85.3204 85.1449 85.6918 85.8097C86.0829 86.4548 86.6205 86.9534 87.3048 87.3053C88.0086 87.6376 88.8297 87.8038 89.7681 87.8038C90.6088 87.8038 91.342 87.6767 91.9676 87.4226C92.6127 87.1684 93.1993 86.7872 93.7271 86.2789L96.1612 88.9182C95.4378 89.7393 94.5287 90.3747 93.4339 90.8244C92.339 91.2545 91.078 91.4695 89.6508 91.4695ZM107.301 91.4695C105.913 91.4695 104.72 91.1763 103.723 90.5898C102.726 90.0032 101.964 89.1137 101.436 87.9211C100.908 86.709 100.644 85.184 100.644 83.3463C100.644 81.489 100.918 79.964 101.465 78.7715C102.032 77.5789 102.814 76.6893 103.811 76.1028C104.808 75.5163 105.971 75.223 107.301 75.223C108.787 75.223 110.116 75.5554 111.289 76.2201C112.482 76.8848 113.42 77.8233 114.104 79.0354C114.808 80.2475 115.16 81.6845 115.16 83.3463C115.16 84.9885 114.808 86.4157 114.104 87.6279C113.42 88.84 112.482 89.7882 111.289 90.4725C110.116 91.1372 108.787 91.4695 107.301 91.4695ZM97.9752 91.2349V69.4752H102.55V78.6542L102.257 83.317L102.345 88.0091V91.2349H97.9752ZM106.509 87.7158C107.272 87.7158 107.946 87.5399 108.533 87.188C109.139 86.8361 109.618 86.3375 109.969 85.6923C110.341 85.0276 110.527 84.2456 110.527 83.3463C110.527 82.4274 110.341 81.6454 109.969 81.0002C109.618 80.3551 109.139 79.8565 108.533 79.5046C107.946 79.1527 107.272 78.9767 106.509 78.9767C105.747 78.9767 105.062 79.1527 104.456 79.5046C103.85 79.8565 103.371 80.3551 103.019 81.0002C102.667 81.6454 102.491 82.4274 102.491 83.3463C102.491 84.2456 102.667 85.0276 103.019 85.6923C103.371 86.3375 103.85 86.8361 104.456 87.188C105.062 87.5399 105.747 87.7158 106.509 87.7158ZM120.907 91.5868C119.48 91.5868 118.062 91.4011 116.655 91.0296C115.247 90.6386 114.055 90.0912 113.077 89.3874L114.925 85.751C115.707 86.318 116.616 86.7676 117.652 87.1C118.688 87.4323 119.734 87.5985 120.79 87.5985C121.982 87.5985 122.921 87.3639 123.605 86.8947C124.289 86.4255 124.631 85.7803 124.631 84.9592C124.631 84.1772 124.328 83.5613 123.722 83.1117C123.116 82.662 122.139 82.4372 120.79 82.4372H118.62V79.2993L124.338 72.8183L124.866 74.5192H114.104V70.7069H128.473V73.7861L122.784 80.2671L120.379 78.8888H121.758C124.28 78.8888 126.186 79.4557 127.476 80.5897C128.766 81.7236 129.412 83.1801 129.412 84.9592C129.412 86.1127 129.109 87.1977 128.502 88.2144C127.896 89.2114 126.968 90.0228 125.717 90.6484C124.465 91.274 122.862 91.5868 120.907 91.5868ZM140.907 79.9445H150.761V83.7568H140.907V79.9445ZM141.259 91.2349H136.508V70.7069H152.022V74.5192H141.259V91.2349ZM158.854 91.4695C157.544 91.4695 156.371 91.2154 155.335 90.7071C154.318 90.1987 153.526 89.4265 152.959 88.3903C152.393 87.3346 152.109 85.9954 152.109 84.3727V75.4576H156.684V83.6982C156.684 85.0081 156.958 85.9758 157.505 86.6014C158.072 87.2075 158.864 87.5105 159.88 87.5105C160.584 87.5105 161.21 87.3639 161.757 87.0707C162.305 86.7579 162.735 86.2886 163.048 85.663C163.36 85.0179 163.517 84.2163 163.517 83.2583V75.4576H168.092V91.2349H163.751V86.8947L164.543 88.1557C164.015 89.2505 163.233 90.0814 162.197 90.6484C161.18 91.1958 160.066 91.4695 158.854 91.4695ZM179.573 75.223C180.825 75.223 181.939 75.4772 182.916 75.9855C183.914 76.4743 184.696 77.2367 185.263 78.2729C185.83 79.2895 186.113 80.5994 186.113 82.2026V91.2349H181.538V82.9064C181.538 81.6356 181.255 80.6972 180.688 80.0911C180.14 79.4851 179.358 79.182 178.342 79.182C177.618 79.182 176.963 79.3384 176.377 79.6512C175.81 79.9445 175.36 80.4039 175.028 81.0295C174.715 81.6552 174.559 82.4567 174.559 83.4343V91.2349H169.984V75.4576H174.353V79.8272L173.532 78.5075C174.099 77.4518 174.911 76.6405 175.966 76.0735C177.022 75.5065 178.224 75.223 179.573 75.223ZM194.803 91.4695C193.317 91.4695 191.978 91.1372 190.785 90.4725C189.592 89.7882 188.644 88.84 187.94 87.6279C187.256 86.4157 186.914 84.9885 186.914 83.3463C186.914 81.6845 187.256 80.2475 187.94 79.0354C188.644 77.8233 189.592 76.8848 190.785 76.2201C191.978 75.5554 193.317 75.223 194.803 75.223C196.132 75.223 197.295 75.5163 198.292 76.1028C199.289 76.6893 200.062 77.5789 200.609 78.7715C201.157 79.964 201.43 81.489 201.43 83.3463C201.43 85.184 201.166 86.709 200.638 87.9211C200.111 89.1137 199.348 90.0032 198.351 90.5898C197.373 91.1763 196.191 91.4695 194.803 91.4695ZM195.594 87.7158C196.337 87.7158 197.012 87.5399 197.618 87.188C198.224 86.8361 198.703 86.3375 199.055 85.6923C199.426 85.0276 199.612 84.2456 199.612 83.3463C199.612 82.4274 199.426 81.6454 199.055 81.0002C198.703 80.3551 198.224 79.8565 197.618 79.5046C197.012 79.1527 196.337 78.9767 195.594 78.9767C194.832 78.9767 194.148 79.1527 193.542 79.5046C192.936 79.8565 192.447 80.3551 192.075 81.0002C191.723 81.6454 191.547 82.4274 191.547 83.3463C191.547 84.2456 191.723 85.0276 192.075 85.6923C192.447 86.3375 192.936 86.8361 193.542 87.188C194.148 87.5399 194.832 87.7158 195.594 87.7158ZM199.729 91.2349V88.0091L199.817 83.317L199.524 78.6542V69.4752H204.099V91.2349H199.729Z" fill="url(#paint1_radial_2822_683)"/>
<g clip-path="url(#clip1_2822_683)">
<path d="M118.926 42.0443C119.782 43.8507 121.528 45.1014 123.497 45.2487C125.113 45.4188 126.785 44.784 127.866 43.5668C130.831 46.9908 136.601 45.1362 137.396 40.728C138.056 37.3107 136.075 33.6483 133.095 32.0092C132.04 31.495 131.05 32.798 131.823 33.7099C133.162 35.1989 134.464 38.1596 133.542 40.0959C132.939 41.4698 131.128 41.8809 130.081 40.724C129.644 40.2794 129.477 39.6433 129.237 39.0782C128.828 37.8141 126.947 37.782 126.597 39.2202C126.586 39.2684 126.575 39.3179 126.565 39.3688C126.348 40.4494 125.422 41.5756 124.245 41.4658C121.903 41.352 121.738 38.5761 122.577 36.85C123.029 35.8631 123.752 35.0369 124.555 34.3232C124.753 34.1478 124.98 33.9536 125.185 33.7889C126.127 33.0577 126.368 31.6745 125.623 30.6822C124.825 29.5922 123.237 29.5387 122.324 30.5095C119.554 33.3698 117.013 38.0846 118.928 42.0443H118.926Z" fill="url(#paint2_radial_2822_683)"/>
</g>
<path d="M94.599 128.209C93.7206 128.209 92.8796 128.086 92.0762 127.84C91.2727 127.583 90.6353 127.256 90.164 126.86L90.8871 125.237C91.337 125.59 91.8941 125.885 92.5582 126.12C93.2224 126.356 93.9027 126.474 94.599 126.474C95.1882 126.474 95.6649 126.41 96.0291 126.281C96.3934 126.153 96.6612 125.981 96.8326 125.767C97.004 125.542 97.0897 125.29 97.0897 125.012C97.0897 124.669 96.9665 124.396 96.7201 124.192C96.4737 123.978 96.1523 123.812 95.756 123.694C95.3703 123.565 94.9364 123.448 94.4544 123.34C93.983 123.233 93.5063 123.11 93.0242 122.971C92.5529 122.821 92.119 122.633 91.7227 122.408C91.337 122.173 91.021 121.862 90.7746 121.476C90.5282 121.091 90.405 120.598 90.405 119.998C90.405 119.387 90.5657 118.83 90.8871 118.327C91.2192 117.813 91.7173 117.406 92.3815 117.106C93.0564 116.795 93.908 116.64 94.9364 116.64C95.6113 116.64 96.2809 116.725 96.9451 116.897C97.6092 117.068 98.1877 117.315 98.6805 117.636L98.0217 119.259C97.5182 118.959 96.9986 118.739 96.463 118.6C95.9274 118.45 95.4132 118.375 94.9204 118.375C94.3419 118.375 93.8705 118.445 93.5063 118.584C93.1528 118.723 92.8903 118.905 92.7189 119.13C92.5582 119.355 92.4779 119.612 92.4779 119.902C92.4779 120.245 92.5957 120.523 92.8314 120.737C93.0778 120.941 93.3938 121.102 93.7795 121.219C94.1759 121.337 94.6151 121.455 95.0971 121.573C95.5792 121.68 96.0559 121.803 96.5273 121.942C97.0093 122.082 97.4432 122.264 97.8289 122.489C98.2252 122.714 98.5412 123.019 98.7769 123.405C99.0233 123.79 99.1465 124.278 99.1465 124.867C99.1465 125.467 98.9805 126.024 98.6484 126.538C98.327 127.042 97.8289 127.449 97.154 127.759C96.4791 128.059 95.6274 128.209 94.599 128.209ZM103.228 128.209C102.436 128.209 101.659 128.097 100.898 127.872C100.149 127.636 99.5165 127.315 99.0023 126.908L99.9021 125.285C100.309 125.617 100.802 125.885 101.38 126.088C101.959 126.292 102.564 126.394 103.196 126.394C103.946 126.394 104.53 126.244 104.948 125.944C105.366 125.633 105.574 125.215 105.574 124.69C105.574 124.176 105.382 123.769 104.996 123.469C104.61 123.169 103.989 123.019 103.132 123.019H102.104V121.589L105.317 117.765L105.591 118.552H99.5486V116.8H107.213V118.198L104 122.023L102.907 121.38H103.534C104.916 121.38 105.949 121.691 106.635 122.312C107.331 122.923 107.679 123.71 107.679 124.674C107.679 125.306 107.519 125.89 107.197 126.426C106.876 126.961 106.383 127.395 105.719 127.727C105.066 128.049 104.235 128.209 103.228 128.209ZM108.58 124.417V122.746H112.999V124.417H108.58ZM113.563 128.049V126.651L118.03 122.408C118.405 122.055 118.684 121.744 118.866 121.476C119.048 121.209 119.166 120.962 119.219 120.737C119.284 120.502 119.316 120.282 119.316 120.078C119.316 119.564 119.139 119.168 118.786 118.889C118.432 118.6 117.912 118.455 117.227 118.455C116.68 118.455 116.182 118.552 115.732 118.745C115.293 118.938 114.913 119.232 114.592 119.629L113.129 118.504C113.568 117.915 114.158 117.459 114.897 117.138C115.647 116.806 116.482 116.64 117.404 116.64C118.218 116.64 118.925 116.774 119.525 117.041C120.135 117.299 120.601 117.668 120.923 118.15C121.255 118.632 121.421 119.205 121.421 119.87C121.421 120.234 121.373 120.598 121.276 120.962C121.18 121.316 120.998 121.691 120.73 122.087C120.462 122.483 120.071 122.928 119.557 123.421L115.716 127.068L115.282 126.281H121.855V128.049H113.563ZM122.022 125.494V124.047L127.565 116.8H129.799L124.335 124.047L123.291 123.726H132.209V125.494H122.022ZM128.192 128.049V125.494L128.256 123.726V121.46H130.217V128.049H128.192ZM136.099 128.049V126.651L140.566 122.408C140.941 122.055 141.22 121.744 141.402 121.476C141.584 121.209 141.702 120.962 141.755 120.737C141.82 120.502 141.852 120.282 141.852 120.078C141.852 119.564 141.675 119.168 141.322 118.889C140.968 118.6 140.448 118.455 139.763 118.455C139.217 118.455 138.718 118.552 138.268 118.745C137.829 118.938 137.449 119.232 137.128 119.629L135.665 118.504C136.105 117.915 136.694 117.459 137.433 117.138C138.183 116.806 139.018 116.64 139.94 116.64C140.754 116.64 141.461 116.774 142.061 117.041C142.671 117.299 143.137 117.668 143.459 118.15C143.791 118.632 143.957 119.205 143.957 119.87C143.957 120.234 143.909 120.598 143.812 120.962C143.716 121.316 143.534 121.691 143.266 122.087C142.998 122.483 142.607 122.928 142.093 123.421L138.252 127.068L137.819 126.281H144.391V128.049H136.099ZM149.646 128.209C148.757 128.209 147.953 127.984 147.235 127.534C146.528 127.085 145.971 126.431 145.564 125.574C145.157 124.706 144.954 123.656 144.954 122.425C144.954 121.193 145.157 120.148 145.564 119.291C145.971 118.423 146.528 117.765 147.235 117.315C147.953 116.865 148.757 116.64 149.646 116.64C150.546 116.64 151.349 116.865 152.056 117.315C152.763 117.765 153.32 118.423 153.727 119.291C154.145 120.148 154.354 121.193 154.354 122.425C154.354 123.656 154.145 124.706 153.727 125.574C153.32 126.431 152.763 127.085 152.056 127.534C151.349 127.984 150.546 128.209 149.646 128.209ZM149.646 126.394C150.171 126.394 150.626 126.254 151.012 125.976C151.397 125.687 151.697 125.247 151.911 124.658C152.136 124.069 152.249 123.324 152.249 122.425C152.249 121.514 152.136 120.769 151.911 120.191C151.697 119.602 151.397 119.168 151.012 118.889C150.626 118.6 150.171 118.455 149.646 118.455C149.142 118.455 148.692 118.6 148.296 118.889C147.91 119.168 147.605 119.602 147.38 120.191C147.166 120.769 147.059 121.514 147.059 122.425C147.059 123.324 147.166 124.069 147.38 124.658C147.605 125.247 147.91 125.687 148.296 125.976C148.692 126.254 149.142 126.394 149.646 126.394ZM157.79 125.397L157.678 122.923L163.575 116.8H165.921L161.02 122.007L159.863 123.276L157.79 125.397ZM155.926 128.049V116.8H158.015V128.049H155.926ZM163.768 128.049L159.461 122.923L160.843 121.396L166.21 128.049H163.768Z" fill="url(#paint3_radial_2822_683)"/>
<g opacity="0.05" filter="url(#filter0_f_2822_683)">
<path d="M111.521 162.292C92.0907 160.835 74.7326 148.775 65.7387 131.161L64.9565 129.541C55.1592 109.246 56.7028 86.9115 64.4163 65.7642C72.1327 44.6089 85.969 24.8184 100.434 9.8513L100.444 9.84091L100.454 9.8304C109.276 0.436386 124.549 1.00851 132.193 11.4671L132.2 11.4766L132.207 11.486C139.372 21.0518 137.081 34.4473 127.96 41.5436L127.946 41.5539L127.933 41.5645C125.741 43.3304 123.313 45.4048 121.204 47.2751L121.2 47.2786C112.624 54.9227 104.78 63.8677 99.8441 74.6383C95.2549 84.1164 93.3828 96.4867 95.929 106.771C97.2095 111.944 99.6325 116.679 103.491 120.212C107.362 123.758 112.55 125.973 119.13 126.302C126.061 126.934 132.15 123.911 136.728 119.356C141.3 114.806 144.497 108.614 145.718 102.53C145.828 102.01 145.937 101.503 146.046 101.01C149.253 87.913 166.312 88.1203 170.05 99.6722L170.077 99.756L170.111 99.837C170.667 101.149 171.185 102.499 171.72 103.894C171.779 104.046 171.838 104.199 171.897 104.353C172.49 105.896 173.108 107.486 173.797 109.044C175.169 112.147 176.872 115.24 179.402 117.831C191.54 131.224 212.329 126.319 219.227 110.649C224.392 99.7493 223.237 86.2226 219.184 73.6637C215.119 61.062 208.021 49.0621 200.768 40.9749C197.384 36.9541 197.855 32.1572 200.337 28.8556C202.814 25.5603 207.181 23.8875 211.755 26.0966C242.505 43.0679 262.885 80.9543 256.104 116.116L256.102 116.129L256.099 116.141C252.052 138.614 235.34 154.628 215.778 160.639C196.233 166.645 174.055 162.608 159.008 145.199L157.507 143.462L155.985 145.18C145.017 157.556 128.006 164.029 111.581 162.297L111.551 162.294L111.521 162.292Z" stroke="white" stroke-width="4.01723"/>
</g>
</g>
<rect x="1.00431" y="1.00431" width="252.991" height="157.991" rx="8.99569" stroke="url(#paint4_linear_2822_683)" stroke-width="2.00862"/>
<defs>
<filter id="filter0_f_2822_683" x="54.4986" y="-0.43398" width="206.526" height="167.297" filterUnits="userSpaceOnUse" color-interpolation-filters="sRGB">
<feFlood flood-opacity="0" result="BackgroundImageFix"/>
<feBlend mode="normal" in="SourceGraphic" in2="BackgroundImageFix" result="shape"/>
<feGaussianBlur stdDeviation="0.803447" result="effect1_foregroundBlur_2822_683"/>
</filter>
<linearGradient id="paint0_linear_2822_683" x1="0" y1="160" x2="267.628" y2="25.0425" gradientUnits="userSpaceOnUse">
<stop stop-color="#0555EC"/>
<stop offset="1" stop-color="#2B74FF"/>
</linearGradient>
<radialGradient id="paint1_radial_2822_683" cx="0" cy="0" r="1" gradientUnits="userSpaceOnUse" gradientTransform="translate(158.275 96.5673) rotate(-158.094) scale(84.7809 94.5796)">
<stop stop-color="white"/>
<stop offset="1" stop-color="#D9F0FF"/>
</radialGradient>
<radialGradient id="paint2_radial_2822_683" cx="0" cy="0" r="1" gradientUnits="userSpaceOnUse" gradientTransform="translate(124.184 30.5396) rotate(54.71) scale(16.7054 25.3875)">
<stop stop-color="white"/>
<stop offset="1" stop-color="#E4F5FF"/>
</radialGradient>
<radialGradient id="paint3_radial_2822_683" cx="0" cy="0" r="1" gradientUnits="userSpaceOnUse" gradientTransform="translate(142.925 131.122) rotate(-155.51) scale(42.3919 51.5384)">
<stop stop-color="white"/>
<stop offset="1" stop-color="#D9F0FF"/>
</radialGradient>
<linearGradient id="paint4_linear_2822_683" x1="0" y1="160" x2="267.628" y2="25.0425" gradientUnits="userSpaceOnUse">
<stop stop-color="#0555EC"/>
<stop offset="1" stop-color="#E0EBFF"/>
</linearGradient>
<clipPath id="clip0_2822_683">
<rect width="255" height="160" rx="10" fill="white"/>
</clipPath>
<clipPath id="clip1_2822_683">
<rect width="20.0862" height="20.0862" fill="white" transform="matrix(-1 0 0 -1 137.93 48.1746)"/>
</clipPath>
</defs>
</svg>
