<svg width="72" height="84" viewBox="0 0 72 84" fill="none" xmlns="http://www.w3.org/2000/svg">
<mask id="path-1-inside-1_2178_4072" fill="white">
<path d="M0 0H72V84H0V0Z"/>
</mask>
<path d="M72 83H0V85H72V83Z" fill="#F0F1F3" mask="url(#path-1-inside-1_2178_4072)"/>
<path d="M29 40C27.9 40 27 40.9 27 42C27 43.1 27.9 44 29 44C30.1 44 31 43.1 31 42C31 40.9 30.1 40 29 40Z" fill="#667085"/>
<path d="M43 40C41.9 40 41 40.9 41 42C41 43.1 41.9 44 43 44C44.1 44 45 43.1 45 42C45 40.9 44.1 40 43 40Z" fill="#667085"/>
<path d="M36 40C34.9 40 34 40.9 34 42C34 43.1 34.9 44 36 44C37.1 44 38 43.1 38 42C38 40.9 37.1 40 36 40Z" fill="#667085"/>
</svg>
