<svg width="17" height="16" viewBox="0 0 17 16" fill="none" xmlns="http://www.w3.org/2000/svg">
<path d="M8.06564 9.58249V11.645C8.06564 12.935 6.86564 13.85 5.38814 13.85C3.91064 13.85 2.70312 12.9275 2.70312 11.645V9.58249C2.70312 8.29249 3.90314 7.25 5.38814 7.25C6.13064 7.25 6.79816 7.51248 7.28566 7.93248C7.76566 8.35248 8.06564 8.93749 8.06564 9.58249Z" stroke="#F18A2B" stroke-width="1.5" stroke-linecap="round" stroke-linejoin="round"/>
<path d="M1.5 6.875V5.375C1.5 3.335 2.73 1.91 4.6425 1.67C4.8375 1.64 5.04 1.625 5.25 1.625H12C12.195 1.625 12.3825 1.63249 12.5625 1.66249C14.4975 1.88749 15.75 3.32 15.75 5.375V6.46251H14.19C13.77 6.46251 13.3875 6.62749 13.11 6.91249C12.795 7.21999 12.615 7.66249 12.66 8.13499C12.7275 8.94499 13.47 9.53749 14.28 9.53749H15.75V10.625C15.75 12.875 14.25 14.375 12 14.375H10.125" stroke="#F18A2B" stroke-width="1.5" stroke-linecap="round" stroke-linejoin="round"/>
</svg>
