<svg width="18" height="18" viewBox="0 0 18 18" fill="none" xmlns="http://www.w3.org/2000/svg">
<path d="M8.06564 12.6453V14.1678C8.06564 15.4578 6.86564 16.5003 5.38814 16.5003C3.91064 16.5003 2.70312 15.4578 2.70312 14.1678V12.6453C2.70312 13.9353 3.90314 14.8503 5.38814 14.8503C6.86564 14.8503 8.06564 13.9278 8.06564 12.6453Z" stroke="#0F68FF" stroke-width="1.5" stroke-linecap="round" stroke-linejoin="round"/>
<path d="M8.06139 10.5825C8.06139 10.9575 7.95638 11.3025 7.77638 11.6025C7.33388 12.33 6.42637 12.7875 5.37637 12.7875C4.32637 12.7875 3.41886 12.3225 2.97636 11.6025C2.79636 11.3025 2.69141 10.9575 2.69141 10.5825C2.69141 9.93749 2.99139 9.35999 3.47139 8.93999C3.95889 8.51249 4.62637 8.25751 5.36887 8.25751C6.11137 8.25751 6.77889 8.51999 7.26639 8.93999C7.76139 9.35249 8.06139 9.93749 8.06139 10.5825Z" stroke="#0F68FF" stroke-width="1.5" stroke-linecap="round" stroke-linejoin="round"/>
<path d="M8.06564 10.5825V12.645C8.06564 13.935 6.86564 14.85 5.38814 14.85C3.91064 14.85 2.70312 13.9275 2.70312 12.645V10.5825C2.70312 9.29249 3.90314 8.25 5.38814 8.25C6.13064 8.25 6.79816 8.51248 7.28566 8.93248C7.76566 9.35248 8.06564 9.93749 8.06564 10.5825Z" stroke="#0F68FF" stroke-width="1.5" stroke-linecap="round" stroke-linejoin="round"/>
<path d="M16.4992 8.22748V9.77252C16.4992 10.185 16.1692 10.5225 15.7492 10.5375H14.2792C13.4692 10.5375 12.7267 9.94499 12.6592 9.13499C12.6142 8.66249 12.7942 8.21999 13.1092 7.91249C13.3867 7.62749 13.7692 7.46251 14.1892 7.46251H15.7492C16.1692 7.47751 16.4992 7.81498 16.4992 8.22748Z" stroke="#0F68FF" stroke-width="1.5" stroke-linecap="round" stroke-linejoin="round"/>
<path d="M1.5 7.875V6.375C1.5 4.335 2.73 2.91 4.6425 2.67C4.8375 2.64 5.04 2.625 5.25 2.625H12C12.195 2.625 12.3825 2.63249 12.5625 2.66249C14.4975 2.88749 15.75 4.32 15.75 6.375V7.46251H14.19C13.77 7.46251 13.3875 7.62749 13.11 7.91249C12.795 8.21999 12.615 8.66249 12.66 9.13499C12.7275 9.94499 13.47 10.5375 14.28 10.5375H15.75V11.625C15.75 13.875 14.25 15.375 12 15.375H10.125" stroke="#0F68FF" stroke-width="1.5" stroke-linecap="round" stroke-linejoin="round"/>
</svg>
